<?xml version="1.0" encoding="UTF-8" standalone="no"?>
<!DOCTYPE svg PUBLIC "-//W3C//DTD SVG 1.1//EN" "http://www.w3.org/Graphics/SVG/1.1/DTD/svg11.dtd">
<svg width="100%" height="100%" viewBox="0 0 136 28" version="1.1" xmlns="http://www.w3.org/2000/svg" xmlns:xlink="http://www.w3.org/1999/xlink" xml:space="preserve" xmlns:serif="http://www.serif.com/" style="fill-rule:evenodd;clip-rule:evenodd;stroke-linejoin:round;stroke-miterlimit:2;">
    <g transform="matrix(1,0,0,1,-39.4371,1.88486)">
        <g>
            <g transform="matrix(22,0,0,22,51.6162,17.9872)">
                <path d="M0.603,-0L0.603,-0.298C0.603,-0.328 0.596,-0.352 0.582,-0.371C0.568,-0.39 0.549,-0.399 0.526,-0.399C0.502,-0.399 0.482,-0.389 0.467,-0.369C0.451,-0.349 0.443,-0.324 0.443,-0.294L0.443,-0L0.313,-0L0.313,-0.296C0.313,-0.316 0.312,-0.332 0.309,-0.345C0.306,-0.358 0.302,-0.368 0.296,-0.375C0.289,-0.382 0.281,-0.388 0.271,-0.391C0.261,-0.394 0.249,-0.395 0.235,-0.395C0.182,-0.395 0.156,-0.363 0.156,-0.299L0.156,-0L0.026,-0L0.026,-0.492L0.148,-0.492L0.148,-0.42C0.165,-0.453 0.185,-0.475 0.208,-0.487C0.231,-0.499 0.259,-0.505 0.292,-0.505C0.309,-0.505 0.324,-0.504 0.337,-0.501C0.349,-0.498 0.361,-0.494 0.372,-0.488C0.382,-0.481 0.392,-0.473 0.401,-0.463C0.41,-0.453 0.42,-0.441 0.429,-0.427C0.442,-0.454 0.46,-0.474 0.482,-0.487C0.504,-0.499 0.531,-0.505 0.562,-0.505C0.587,-0.505 0.609,-0.501 0.63,-0.493C0.651,-0.484 0.668,-0.472 0.683,-0.458C0.698,-0.443 0.709,-0.425 0.718,-0.405C0.726,-0.385 0.73,-0.364 0.73,-0.341L0.73,-0L0.603,-0Z" style="fill:white;fill-rule:nonzero;"/>
            </g>
            <g transform="matrix(22,0,0,22,68.2042,17.9872)">
                <path d="M0.325,-0.241C0.318,-0.234 0.309,-0.229 0.296,-0.225C0.283,-0.221 0.265,-0.217 0.241,-0.212C0.204,-0.205 0.178,-0.195 0.164,-0.184C0.15,-0.173 0.143,-0.156 0.143,-0.135C0.143,-0.098 0.164,-0.08 0.206,-0.08C0.223,-0.08 0.238,-0.083 0.253,-0.089C0.267,-0.094 0.279,-0.102 0.29,-0.112C0.3,-0.121 0.308,-0.133 0.315,-0.146C0.321,-0.159 0.324,-0.172 0.324,-0.187L0.325,-0.241ZM0.334,-0C0.33,-0.013 0.327,-0.027 0.326,-0.044C0.311,-0.027 0.29,-0.013 0.265,-0.003C0.24,0.008 0.21,0.013 0.177,0.013C0.12,0.013 0.079,0 0.053,-0.025C0.026,-0.05 0.013,-0.082 0.013,-0.122C0.013,-0.157 0.019,-0.186 0.03,-0.206C0.041,-0.228 0.057,-0.244 0.077,-0.256C0.097,-0.268 0.121,-0.277 0.149,-0.282C0.176,-0.288 0.206,-0.293 0.239,-0.298C0.272,-0.303 0.294,-0.309 0.305,-0.317C0.316,-0.324 0.322,-0.337 0.322,-0.354C0.322,-0.37 0.315,-0.383 0.3,-0.392C0.284,-0.401 0.264,-0.405 0.239,-0.405C0.209,-0.405 0.188,-0.398 0.174,-0.385C0.162,-0.372 0.153,-0.354 0.15,-0.332L0.029,-0.332C0.03,-0.357 0.034,-0.381 0.042,-0.402C0.049,-0.423 0.062,-0.442 0.079,-0.457C0.096,-0.472 0.118,-0.484 0.145,-0.493C0.172,-0.501 0.206,-0.505 0.245,-0.505C0.284,-0.505 0.317,-0.501 0.344,-0.492C0.371,-0.483 0.392,-0.471 0.408,-0.455C0.425,-0.438 0.437,-0.418 0.444,-0.394C0.451,-0.369 0.455,-0.342 0.455,-0.311L0.455,-0L0.334,-0Z" style="fill:white;fill-rule:nonzero;"/>
            </g>
            <g transform="matrix(22,0,0,22,78.8962,17.9872)">
                <path d="M0.322,-0.343C0.319,-0.367 0.31,-0.384 0.296,-0.394C0.282,-0.403 0.26,-0.408 0.23,-0.408C0.205,-0.408 0.186,-0.405 0.173,-0.399C0.16,-0.392 0.153,-0.382 0.153,-0.367C0.153,-0.352 0.16,-0.341 0.173,-0.334C0.186,-0.326 0.206,-0.318 0.233,-0.311C0.261,-0.303 0.288,-0.296 0.313,-0.29C0.338,-0.283 0.361,-0.276 0.38,-0.269C0.406,-0.258 0.426,-0.244 0.44,-0.226C0.454,-0.207 0.461,-0.182 0.461,-0.15C0.461,-0.099 0.443,-0.059 0.406,-0.03C0.37,-0.001 0.317,0.013 0.246,0.013C0.17,0.013 0.112,-0.003 0.071,-0.035C0.031,-0.067 0.01,-0.108 0.009,-0.158L0.143,-0.158C0.143,-0.135 0.152,-0.117 0.17,-0.104C0.188,-0.091 0.213,-0.085 0.245,-0.085C0.268,-0.085 0.289,-0.089 0.306,-0.097C0.323,-0.104 0.332,-0.117 0.332,-0.136C0.332,-0.153 0.324,-0.166 0.309,-0.173C0.293,-0.18 0.274,-0.187 0.253,-0.192C0.212,-0.202 0.178,-0.211 0.153,-0.219C0.128,-0.227 0.106,-0.237 0.089,-0.248C0.066,-0.263 0.05,-0.279 0.041,-0.298C0.032,-0.317 0.027,-0.337 0.027,-0.359C0.027,-0.38 0.031,-0.399 0.038,-0.417C0.045,-0.435 0.057,-0.451 0.074,-0.464C0.091,-0.476 0.112,-0.487 0.139,-0.494C0.165,-0.501 0.197,-0.505 0.234,-0.505C0.305,-0.505 0.358,-0.491 0.392,-0.464C0.425,-0.437 0.444,-0.396 0.447,-0.343L0.322,-0.343Z" style="fill:white;fill-rule:nonzero;"/>
            </g>
            <g transform="matrix(22,0,0,22,89.2802,17.9872)">
                <path d="M0.026,-0.492L0.157,-0.492L0.157,0.033C0.157,0.063 0.152,0.09 0.142,0.114C0.132,0.139 0.118,0.16 0.101,0.177C0.084,0.195 0.063,0.209 0.04,0.218C0.016,0.228 -0.01,0.233 -0.037,0.233C-0.104,0.233 -0.154,0.214 -0.186,0.177C-0.219,0.14 -0.235,0.09 -0.235,0.027L-0.113,0.027C-0.113,0.055 -0.108,0.077 -0.097,0.093C-0.087,0.11 -0.069,0.118 -0.044,0.118C-0.018,0.118 0,0.11 0.011,0.094C0.021,0.078 0.026,0.056 0.026,0.028L0.026,-0.492ZM0.026,-0.551L0.026,-0.672L0.157,-0.672L0.157,-0.551L0.026,-0.551Z" style="fill:white;fill-rule:nonzero;"/>
            </g>
            <g transform="matrix(22,0,0,22,93.5702,17.9872)">
                <path d="M0.029,-0L0.029,-0.492L0.159,-0.492L0.159,-0L0.029,-0ZM0.029,-0.551L0.029,-0.672L0.159,-0.672L0.159,-0.551L0.029,-0.551Z" style="fill:white;fill-rule:nonzero;"/>
            </g>
            <g transform="matrix(22,0,0,22,97.7942,17.9872)">
                <path d="M0.259,-0.093C0.29,-0.093 0.317,-0.106 0.338,-0.132C0.359,-0.158 0.369,-0.192 0.369,-0.234C0.369,-0.341 0.333,-0.394 0.26,-0.394C0.185,-0.394 0.148,-0.343 0.148,-0.242C0.148,-0.198 0.158,-0.162 0.179,-0.135C0.2,-0.107 0.226,-0.093 0.259,-0.093ZM0.367,-0L0.366,-0.06C0.336,-0.011 0.29,0.013 0.229,0.013C0.198,0.013 0.169,0.007 0.143,-0.005C0.117,-0.017 0.095,-0.034 0.076,-0.057C0.057,-0.08 0.043,-0.107 0.032,-0.14C0.021,-0.173 0.016,-0.21 0.016,-0.251C0.016,-0.288 0.021,-0.323 0.029,-0.354C0.039,-0.385 0.052,-0.411 0.069,-0.434C0.086,-0.457 0.108,-0.474 0.133,-0.487C0.158,-0.499 0.186,-0.505 0.218,-0.505C0.279,-0.505 0.327,-0.479 0.364,-0.428L0.364,-0.672L0.492,-0.672L0.492,-0L0.367,-0Z" style="fill:white;fill-rule:nonzero;"/>
            </g>
            <g transform="matrix(22,0,0,22,109.3,17.9872)">
                <path d="M0.35,-0.294C0.349,-0.312 0.346,-0.328 0.341,-0.342C0.335,-0.355 0.327,-0.367 0.318,-0.376C0.309,-0.385 0.298,-0.391 0.286,-0.396C0.274,-0.4 0.262,-0.402 0.249,-0.402C0.223,-0.402 0.201,-0.393 0.182,-0.374C0.163,-0.355 0.152,-0.328 0.149,-0.294L0.35,-0.294ZM0.145,-0.212C0.147,-0.175 0.158,-0.145 0.178,-0.123C0.197,-0.101 0.223,-0.09 0.255,-0.09C0.276,-0.09 0.295,-0.095 0.312,-0.105C0.328,-0.114 0.338,-0.128 0.343,-0.145L0.477,-0.145C0.462,-0.094 0.435,-0.055 0.397,-0.028C0.359,-0.001 0.314,0.013 0.261,0.013C0.097,0.013 0.015,-0.076 0.015,-0.255C0.015,-0.293 0.02,-0.327 0.031,-0.358C0.042,-0.389 0.057,-0.415 0.078,-0.437C0.098,-0.459 0.123,-0.476 0.152,-0.488C0.181,-0.499 0.215,-0.505 0.253,-0.505C0.329,-0.505 0.387,-0.481 0.426,-0.432C0.465,-0.383 0.484,-0.31 0.484,-0.212L0.145,-0.212Z" style="fill:white;fill-rule:nonzero;"/>
            </g>
            <g transform="matrix(22,0,0,22,120.366,17.9872)">
                <path d="M0.026,-0L0.026,-0.492L0.148,-0.492L0.148,-0.433C0.159,-0.45 0.17,-0.463 0.182,-0.472C0.193,-0.481 0.205,-0.489 0.218,-0.494C0.23,-0.499 0.242,-0.502 0.255,-0.503C0.268,-0.504 0.281,-0.505 0.294,-0.505L0.311,-0.505L0.311,-0.372C0.299,-0.374 0.287,-0.375 0.275,-0.375C0.196,-0.375 0.156,-0.335 0.156,-0.256L0.156,-0L0.026,-0Z" style="fill:white;fill-rule:nonzero;"/>
            </g>
            <g transform="matrix(22,0,0,22,127.01,17.9872)">
                <path d="M0.322,-0.343C0.319,-0.367 0.31,-0.384 0.296,-0.394C0.282,-0.403 0.26,-0.408 0.23,-0.408C0.205,-0.408 0.186,-0.405 0.173,-0.399C0.16,-0.392 0.153,-0.382 0.153,-0.367C0.153,-0.352 0.16,-0.341 0.173,-0.334C0.186,-0.326 0.206,-0.318 0.233,-0.311C0.261,-0.303 0.288,-0.296 0.313,-0.29C0.338,-0.283 0.361,-0.276 0.38,-0.269C0.406,-0.258 0.426,-0.244 0.44,-0.226C0.454,-0.207 0.461,-0.182 0.461,-0.15C0.461,-0.099 0.443,-0.059 0.406,-0.03C0.37,-0.001 0.317,0.013 0.246,0.013C0.17,0.013 0.112,-0.003 0.071,-0.035C0.031,-0.067 0.01,-0.108 0.009,-0.158L0.143,-0.158C0.143,-0.135 0.152,-0.117 0.17,-0.104C0.188,-0.091 0.213,-0.085 0.245,-0.085C0.268,-0.085 0.289,-0.089 0.306,-0.097C0.323,-0.104 0.332,-0.117 0.332,-0.136C0.332,-0.153 0.324,-0.166 0.309,-0.173C0.293,-0.18 0.274,-0.187 0.253,-0.192C0.212,-0.202 0.178,-0.211 0.153,-0.219C0.128,-0.227 0.106,-0.237 0.089,-0.248C0.066,-0.263 0.05,-0.279 0.041,-0.298C0.032,-0.317 0.027,-0.337 0.027,-0.359C0.027,-0.38 0.031,-0.399 0.038,-0.417C0.045,-0.435 0.057,-0.451 0.074,-0.464C0.091,-0.476 0.112,-0.487 0.139,-0.494C0.165,-0.501 0.197,-0.505 0.234,-0.505C0.305,-0.505 0.358,-0.491 0.392,-0.464C0.425,-0.437 0.444,-0.396 0.447,-0.343L0.322,-0.343Z" style="fill:white;fill-rule:nonzero;"/>
            </g>
            <g transform="matrix(22,0,0,22,137.394,17.9872)">
                <rect x="0.023" y="-0.135" width="0.139" height="0.135" style="fill:white;fill-rule:nonzero;"/>
            </g>
            <g transform="matrix(22,0,0,22,141.508,17.9872)">
                <path d="M0.603,-0L0.603,-0.298C0.603,-0.328 0.596,-0.352 0.582,-0.371C0.568,-0.39 0.549,-0.399 0.526,-0.399C0.502,-0.399 0.482,-0.389 0.467,-0.369C0.451,-0.349 0.443,-0.324 0.443,-0.294L0.443,-0L0.313,-0L0.313,-0.296C0.313,-0.316 0.312,-0.332 0.309,-0.345C0.306,-0.358 0.302,-0.368 0.296,-0.375C0.289,-0.382 0.281,-0.388 0.271,-0.391C0.261,-0.394 0.249,-0.395 0.235,-0.395C0.182,-0.395 0.156,-0.363 0.156,-0.299L0.156,-0L0.026,-0L0.026,-0.492L0.148,-0.492L0.148,-0.42C0.165,-0.453 0.185,-0.475 0.208,-0.487C0.231,-0.499 0.259,-0.505 0.292,-0.505C0.309,-0.505 0.324,-0.504 0.337,-0.501C0.349,-0.498 0.361,-0.494 0.372,-0.488C0.382,-0.481 0.392,-0.473 0.401,-0.463C0.41,-0.453 0.42,-0.441 0.429,-0.427C0.442,-0.454 0.46,-0.474 0.482,-0.487C0.504,-0.499 0.531,-0.505 0.562,-0.505C0.587,-0.505 0.609,-0.501 0.63,-0.493C0.651,-0.484 0.668,-0.472 0.683,-0.458C0.698,-0.443 0.709,-0.425 0.718,-0.405C0.726,-0.385 0.73,-0.364 0.73,-0.341L0.73,-0L0.603,-0Z" style="fill:white;fill-rule:nonzero;"/>
            </g>
            <g transform="matrix(22,0,0,22,158.096,17.9872)">
                <path d="M0.339,-0.065C0.33,-0.043 0.313,-0.026 0.289,-0.014C0.264,-0.001 0.237,0.005 0.206,0.005C0.18,0.005 0.156,0.001 0.134,-0.008C0.112,-0.016 0.093,-0.028 0.077,-0.043C0.061,-0.059 0.049,-0.078 0.04,-0.1C0.031,-0.121 0.026,-0.146 0.026,-0.173L0.026,-0.492L0.156,-0.492L0.156,-0.192C0.156,-0.131 0.184,-0.1 0.239,-0.1C0.269,-0.1 0.293,-0.109 0.312,-0.126C0.33,-0.143 0.339,-0.165 0.339,-0.192L0.339,-0.492L0.469,-0.492L0.469,0.013C0.469,0.048 0.463,0.079 0.452,0.106C0.44,0.133 0.424,0.156 0.404,0.175C0.383,0.194 0.359,0.208 0.332,0.218C0.304,0.228 0.274,0.233 0.243,0.233C0.17,0.233 0.116,0.215 0.08,0.178C0.044,0.141 0.026,0.091 0.026,0.027L0.147,0.027C0.147,0.056 0.156,0.079 0.172,0.096C0.19,0.113 0.215,0.121 0.249,0.121C0.261,0.121 0.272,0.118 0.283,0.113C0.294,0.108 0.303,0.101 0.312,0.092C0.32,0.083 0.327,0.072 0.332,0.059C0.337,0.046 0.339,0.031 0.339,0.015L0.339,-0.065Z" style="fill:white;fill-rule:nonzero;"/>
            </g>
        </g>
    </g>
</svg>
